<?xml version="1.0" encoding="UTF-8"?><svg id="Layer_1" xmlns="http://www.w3.org/2000/svg" viewBox="0 0 608.95 202.7"><defs><style>.cls-1{fill:#58595b;}</style></defs><path class="cls-1" d="M404.41,5.85c-1.31,1.24-82.47,78.22-88.81,176.91-.05.77-.1,1.55-.14,2.33-.17,3.25-.25,6.52-.25,9.81,0-3.29-.08-6.56-.25-9.81-.04-.78-.08-1.56-.14-2.33C308.49,84.07,227.33,7.09,226.02,5.85c1.37,1.02,89.2,65.48,89.2,169.92,0-104.44,87.83-168.9,89.2-169.92Z"/><path class="cls-1" d="M290.62,96s-63.71-22.82-51.94-90.16c0,0-9.32,57.35,47.66,81.5l4.28,8.66Z"/><path class="cls-1" d="M339.75,96s63.71-22.82,51.94-90.16c0,0,9.47,57.27-47.51,81.41l-4.43,8.74Z"/><path class="cls-1" d="M325.59,138.04s8.23-13.05,25.3-15.6c0,0-18.11,6.7-25.3,15.6Z"/><path class="cls-1" d="M337.56,122.22s23.71-6.53,28.68-28.93c0,0,4.56,18.62-28.68,28.93Z"/><path class="cls-1" d="M305.04,138.04s-8.23-13.05-25.3-15.6c0,0,18.11,6.7,25.3,15.6Z"/><path class="cls-1" d="M293.07,122.22s-23.71-6.53-28.68-28.93c0,0-4.56,18.62,28.68,28.93Z"/><path d="M81.67,77.84c1.85,1.85,4.93,1.19,5.96-1.21,2.85-6.66,7.49-11.12,13.1-11.25,6.92-.22,20.97,5.08,17.4,17.18-.43,1.62-2.27,3.24-4.32,4.97l-12.5,9.95.8.8,22.08-17.88c-5.94-9.94-12.1-16.1-23.99-16.1-9.02,0-16.45,4.17-21.02,11.05l2.5,2.5Z"/><path d="M123.64,106.12c-1.28,2.73-3.37,5.47-5.87,7.82l.81.81c2.55-2.41,4.7-5.34,6.15-8.63h-1.08Z"/><path d="M114.5,116.6c-3.36,2.36-7.1,3.9-10.53,3.9-5.89,0-10.56-3.34-13.83-8.18-1.08-1.6-.71-3.78.79-5l7.9-6.39-.82-.82-6.06,4.82c-2.13,1.69-5.27.65-6.01-1.96-.93-3.29-1.43-6.75-1.43-10.03,0-1.44.07-2.86.19-4.25.1-1.1-.31-2.19-1.09-2.98l-2.21-2.21c-2.1-2.1-5.74-1.08-6.37,1.83-.52,2.39-.79,4.94-.79,7.61,0,16.75,13.4,28.64,28.64,28.64,4.19,0,8.57-1.54,12.41-4.18l-.8-.8Z"/><path d="M505.17,75.34c2.9,2.9,7.76,2.21,9.75-1.37,2.87-5.17,6.98-8.49,11.81-8.6,6.92-.22,20.97,5.08,17.4,17.18-.43,1.62-2.27,3.24-4.32,4.97l-12.5,9.95.8.8,22.08-17.88c-5.94-9.94-12.1-16.1-23.99-16.1-9.02,0-16.45,4.17-21.02,11.05h0Z"/><path d="M549.64,106.12c-1.28,2.73-3.37,5.47-5.87,7.82l.81.81c2.55-2.41,4.7-5.34,6.15-8.63h-1.08Z"/><path d="M540.5,116.6c-3.36,2.36-7.1,3.9-10.53,3.9-7.03,0-12.32-4.76-15.56-11.13l10.43-8.44-.82-.82-10.15,8.07c-2.16-4.65-3.35-10.16-3.35-15.24,0-.24,0-.48,0-.72.05-3.53-1.31-6.92-3.81-9.41l-3.65-3.65c-1.82,4.01-2.82,8.66-2.82,13.78,0,16.75,13.4,28.64,28.64,28.64,4.19,0,8.57-1.54,12.41-4.18l-.8-.8Z"/><path d="M138.1,59.28c3.24,0,5.94-2.7,5.94-5.94s-2.7-5.94-5.94-5.94-5.94,2.7-5.94,5.94,2.7,5.94,5.94,5.94Z"/><path d="M122.65,70.42c11.67-1.95,11.46-1.95,11.46,9.94v8.39h2.49c3.99,0,7.23-3.24,7.23-7.23v-15.53h-1.19l-20.21,3.35-.97.11.11,1.08,1.08-.11Z"/><path d="M143.83,108.68v-16.14h-.59c-5.05,0-9.14,4.09-9.14,9.14v7q0,11.89-11.78,11.89h-1.08v1.08h35.45v-1.08h-1.08q-11.78,0-11.78-11.89Z"/><path d="M373.59,59.28c3.24,0,5.94-2.7,5.94-5.94s-2.7-5.94-5.94-5.94-5.94,2.7-5.94,5.94,2.7,5.94,5.94,5.94Z"/><path d="M358.13,70.42c11.67-1.95,11.46-1.95,11.46,9.94v8.39h0c5.37,0,9.73-4.36,9.73-9.73v-13.04h-1.19l-20.21,3.35-.97.11.11,1.08,1.08-.11Z"/><path d="M379.32,108.68v-16.14h0c-5.37,0-9.73,4.36-9.73,9.73v6.41q0,11.89-11.78,11.89h-1.08v1.08h35.45v-1.08h-1.08q-11.78,0-11.78-11.89Z"/><path d="M164.14,37.99c11.67-1.95,11.46-1.95,11.46,9.94v60.74s0,.04,0,.06c0,1.95,2.31,2.98,3.76,1.68l5.97-5.36V33.56h-1.19l-20.21,3.35-.97.11.11,1.08,1.08-.11Z"/><path d="M181.24,113.81l-8.74,7.84h25.67v-1.08h-1.08c-8.88,0-11.07,0-11.6-5.1-.22-2.09-2.69-3.06-4.25-1.66Z"/><path d="M168.08,120.53c-1.22.03-2.62.03-4.27.03h-1.08v1.08h4.11l1.24-1.11Z"/><path d="M230.73,94.77l-4.17,12.87-1.26-3.93c-1.7-5.32-6.65-8.94-12.24-8.94h0l8.96,26.81h1.19l8.73-26.81h-1.21Z"/><path d="M233.17,90.98l3.87-11.88,1.91,5.96c1.13,3.53,4.41,5.93,8.12,5.93h2.92l-8.19-26.69h-1.19l-8.65,26.69h1.22Z"/><path d="M217.02,90.98h4.21s-4.08-12.75-4.08-12.75c-3.67-11.24-4-11.24,7.78-11.24h1.08v-1.08h-35.45v1.08h1.08c11.78,0,12.11-.11,15.89,11.24l2.6,7.79c.99,2.96,3.76,4.95,6.88,4.95Z"/><path d="M256.39,65.92v1.08h1.08c11.78,0,11.46-.11,7.67,11.24l-4.26,12.75h1.19l4.26-12.75c3.78-11.35,4.11-11.24,15.89-11.24h1.08v-1.08h-26.91Z"/><path d="M259.61,94.77l-4.41,13.19-2.02-6.6c-1.2-3.92-4.82-6.59-8.92-6.59h-2.19l8.6,26.81h1.19l8.96-26.81h-1.2Z"/><path d="M351.13,120.57q-11.78,0-11.78-11.89v-19.45c0-13.73-8.54-23.24-20.53-23.24-5.71,0-10.26,3.28-13.41,9.06-1.03,1.89-3.89,1.17-3.89-.98v-40.5h-1.19l-20.21,3.35-.97.11.11,1.08,1.08-.11c11.67-1.95,11.46-1.95,11.46,9.94v22.24l10.59,18.34c2.21-13.64,8.43-21.45,15.35-21.45,7.57,0,12.43,10.48,12.43,22.16v19.45q0,11.89-11.78,11.89h-1.08v1.08h34.91v-1.08h-1.08Z"/><path d="M301.52,108.68v-8.86c0-.09,0-.18,0-.26,0-2.85-.71-5.65-2.13-8.11l-7.6-13.16v30.4q0,11.89-11.78,11.89h-1.08v1.08h35.45v-1.08h-1.08q-11.78,0-11.78-11.89Z"/><path d="M420.21,66.06c7.88,2.93,9.58,11.21,9.58,17.51h1.08v-15.67h-1.08c0,2.49-.65,4.32-1.08,3.57-1.67-2.65-4.65-5.02-8.37-6.37l-.13.97Z"/><path d="M412.18,97.42l.02-.12c.7-5.2-1.78-10.19-6.14-13.11-2.53-1.69-4.14-3.86-4.14-7,0-6.48,2.7-12.21,11.67-12.21,1.04,0,2.01.07,2.93.19l.14-1.03c-.99-.16-2.02-.25-3.07-.25-12.75,0-21.4,5.94-21.4,14.37,0,13.04,10.65,16.38,20,19.15Z"/><path d="M409.17,119.83c-12.88-2.11-15.48-16.34-15.48-21.34h-1.19v14.59h1.08c0-2.81.76-3.03,1.19-2.27,3.33,5.55,7.7,9.19,14.25,10.13l.15-1.11Z"/><path d="M416.37,94.67h0c-.29,2.17.92,4.26,2.95,5.08,3.94,1.6,6.69,3.69,6.69,7.49,0,7.45-3.25,12.7-13.06,12.85l-.15,1.08c13.56-.08,22.93-5.69,22.93-15.02,0-8.6-5.93-12.55-12.82-15.3-2.91-1.16-6.13.72-6.55,3.82Z"/><path d="M455.54,135.03v-29.64s.01.04.02.06v-5.04s-.01-.07-.02-.11v-13.62s.01-.07.02-.11v-5.04s-.01.04-.02.06v-16.75h-1.19l-20.21,3.35-.97.11.11,1.08,1.08-.11c11.67-1.95,11.46-1.95,11.46,9.94v55.8q0,11.89-11.78,11.89h-1.08v1.08h35.45v-1.08h-1.08q-11.78,0-11.78-11.89Z"/><path d="M473.92,64.86c-6.31,0-11.21,2.93-14.57,7.96v2.28c3.07-5.59,7.5-9.16,12.41-9.16,9.19,0,14.59,12.65,14.59,27.56s-5.4,27.56-14.59,27.56c-4.91,0-9.34-3.57-12.41-9.16v2.28c3.36,5.03,8.25,7.96,14.57,7.96,13.94,0,22.7-11.89,22.7-28.64s-8.75-28.64-22.7-28.64Z"/><path d="M574.47,86.92c3.53-10.52,9.25-19.85,15.88-19.85,3.67,0,10.48,2.92,9.62,14.48-.22,2.49-2.92,5.08-6.27,7.67l-19.23,15.17v1.57l29.61-23.76c0-2.05-2.27-16.21-14.16-16.21-6.17,0-11.71,7.54-15.45,17.01v3.92Z"/><path d="M570.7,112.24h-.02v-46.25h-1.19l-20.21,3.35-.97.11.11,1.08,1.08-.11c11.67-1.95,11.46-1.95,11.46,9.94v28.32q0,11.89-11.78,11.89h-1.08v1.08h35.45v-1.08h-1.08c-10.46,0-11.63,0-11.76-8.33Z"/><path d="M84.18,66.98v-1.08h-27v1.08h1.08c11.82,0,11.38-.11,6.62,10.84l-5.57,12.94h1.21s5.56-12.94,5.56-12.94c4.77-10.95,5.2-10.84,17.02-10.84h1.09Z"/><path d="M51.11,109.81l-8.01-16.02c-4.78.02-7.99,4.91-6.1,9.3l9.02,18.64h1.19l12.18-27.19h-1.21s-7.06,15.27-7.06,15.27Z"/><path d="M38.73,81.7l-1.71-3.87c-4.88-10.95-5.31-10.84,6.51-10.84h1.08v-1.08H9.05v1.08h1.08c11.82,0,12.25-.11,17.02,10.84l5.61,13.06c4.72-.02,7.86-4.87,5.96-9.18Z"/></svg>
